# xmcd
#
# Track frame offsets: 
#        150
#        20705
#        44368
#        87003
#        109381
#        131487
#        170810
#        195763
#        261509
#        306419
#
# Disc length: 4568 seconds
#
# Revision: 1
# Processed by: cddbd v1.5.2PL0 Copyright (c) Steve Scherf et al.
# Submitted via: ExactAudioCopy v1.3
#
DISCID=8b11d60a
DTITLE=John Coltrane and Wilbur Harden - Complete Mainstream Sessions (c
DTITLE=d2)
DYEAR=1958
DGENRE=Jazz
TTITLE0=B.J.
TTITLE1=Anedac
TTITLE2=Once in a while
TTITLE3=B.J. (alt take 1)
TTITLE4=B.J. (alt take 2)
TTITLE5=Dial Africa
TTITLE6=Oomba
TTITLE7=Gold coast
TTITLE8=Tanganyika strut
TTITLE9=Dial Africa (alt take)
EXTD=YEAR: 1958
EXTT0=
EXTT1=
EXTT2=
EXTT3=
EXTT4=
EXTT5=
EXTT6=
EXTT7=
EXTT8=
EXTT9=
PLAYORDER=
